<svg xmlns="http://www.w3.org/2000/svg" width="20" height="20"><path fill="#AB8C3D" d="M6.667 4.167c0-.92.746-1.667 1.666-1.667h5.385c1.168 0 2.115.947 2.115 2.115v1.218h-7.5c-.92 0-1.667-.746-1.667-1.666z"/><path fill="#EDC869" d="M2.5 15.42V4.53a1 1 0 0 1 .757-.97l.79-.197a1 1 0 0 1 .243-.03h3.894a1 1 0 0 1 .857.486L9.71 4.93a1 1 0 0 0 .857.486h3.877a1 1 0 0 1 .275.038l2.057.588a1 1 0 0 1 .725.961v8.177a1 1 0 0 1-.106.447l-.45.903a1 1 0 0 1-.895.552H4.164a1 1 0 0 1-.707-.292l-.664-.665a1 1 0 0 1-.293-.707z"/><path fill="#EDC869" d="M15.833 5.417H10.6l-.267-1.667a2.5 2.5 0 0 0-2.367-1.667h-3.8a2.5 2.5 0 0 0-2.5 2.5v10.834a2.5 2.5 0 0 0 2.5 2.5h11.667a2.5 2.5 0 0 0 2.5-2.5v-7.5a2.5 2.5 0 0 0-2.5-2.5zm.833 10a.833.833 0 0 1-.833.833H4.167a.833.833 0 0 1-.834-.833V4.583a.833.833 0 0 1 .833-.833h3.8a.833.833 0 0 1 .792.567l.45 2.2a.833.833 0 0 0 .792.566h5.833a.833.833 0 0 1 .833.834v7.5z"/></svg>