<svg xmlns="http://www.w3.org/2000/svg" width="20" height="20" fill="#2D5779"><path fill="#62A8DF" d="m4.167 7.917.416-5 6.25-.417 4.583 5 .417 8.75-1.667 1.667L5 17.083l-.833-.416v-8.75z"/><path fill="#62A8DF" d="M16.667 7.45a1.09 1.09 0 0 0-.05-.225V7.15a.89.89 0 0 0-.159-.233l-5-5a.893.893 0 0 0-.233-.159h-.075a.734.734 0 0 0-.275-.091H5.833a2.5 2.5 0 0 0-2.5 2.5v11.666a2.5 2.5 0 0 0 2.5 2.5h8.334a2.5 2.5 0 0 0 2.5-2.5V7.45zm-5-2.942 2.158 2.159H12.5a.833.833 0 0 1-.833-.834V4.508zM15 15.833a.833.833 0 0 1-.833.834H5.833A.833.833 0 0 1 5 15.833V4.167a.833.833 0 0 1 .833-.834H10v2.5a2.5 2.5 0 0 0 2.5 2.5H15v7.5z"/><path fill-rule="evenodd" d="M11.25 1.667h-.416V4.5a3 3 0 0 0 3 3h2.833v-.417L11.25 1.667z" clip-rule="evenodd"/></svg>